<svg aria-hidden="true" style="position: absolute; width: 0; height: 0; overflow: hidden;" version="1.1" xmlns="http://www.w3.org/2000/svg" xmlns:xlink="http://www.w3.org/1999/xlink">
<defs>
<symbol id="header-phone" viewBox="0 0 23 32">
<path fill="#757575" style="fill: var(--color1, #757575)" d="M19.429 0h-16c-1.891 0-3.429 1.346-3.429 3v26c0 1.654 1.538 3 3.429 3h16c1.891 0 3.429-1.346 3.429-3v-26c0-1.654-1.538-3-3.429-3zM3.429 2h16c0.631 0 1.143 0.448 1.143 1v21h-18.286v-21c0-0.552 0.512-1 1.143-1zM19.429 30h-16c-0.631 0-1.143-0.448-1.143-1v-3h18.286v3c0 0.552-0.512 1-1.143 1z"></path>
<path fill="#757575" style="fill: var(--color1, #757575)" d="M5.38 27.293c0.446 0.391 0.446 1.025 0 1.416s-1.17 0.391-1.616 0c-0.446-0.391-0.446-1.025 0-1.416s1.17-0.391 1.616 0z"></path>
</symbol>
</defs>
</svg>
